<mxfile host="app.diagrams.net" modified="2021-08-16T13:26:33.977Z" agent="5.0 (Windows)" etag="3D2jgOZ5TDZfQBjfadvw" version="14.9.6" type="github">
  <diagram id="wkuXLtREneCwOUzyzkUJ" name="Page-1">
    <mxGraphModel dx="1359" dy="780" grid="1" gridSize="10" guides="1" tooltips="1" connect="1" arrows="1" fold="1" page="1" pageScale="1" pageWidth="1920" pageHeight="1200" math="0" shadow="0">
      <root>
        <mxCell id="0" />
        <mxCell id="1" parent="0" />
        <mxCell id="tVFLnHzWBaxxeH9vSnJw-9" value="" style="rounded=0;whiteSpace=wrap;html=1;" vertex="1" parent="1">
          <mxGeometry x="420" y="180" width="340" height="300" as="geometry" />
        </mxCell>
        <mxCell id="tVFLnHzWBaxxeH9vSnJw-1" value="&lt;font style=&quot;font-size: 18px&quot;&gt;New&lt;/font&gt;" style="ellipse;whiteSpace=wrap;html=1;" vertex="1" parent="1">
          <mxGeometry x="530" y="90" width="120" height="80" as="geometry" />
        </mxCell>
        <mxCell id="tVFLnHzWBaxxeH9vSnJw-2" value="&lt;font style=&quot;font-size: 18px&quot;&gt;Running&lt;/font&gt;" style="ellipse;whiteSpace=wrap;html=1;" vertex="1" parent="1">
          <mxGeometry x="530" y="220" width="120" height="80" as="geometry" />
        </mxCell>
        <mxCell id="tVFLnHzWBaxxeH9vSnJw-3" value="&lt;font style=&quot;font-size: 18px&quot;&gt;Ready&lt;/font&gt;" style="ellipse;whiteSpace=wrap;html=1;" vertex="1" parent="1">
          <mxGeometry x="530" y="360" width="120" height="80" as="geometry" />
        </mxCell>
        <mxCell id="tVFLnHzWBaxxeH9vSnJw-4" value="" style="curved=1;endArrow=classic;html=1;exitX=0;exitY=0.5;exitDx=0;exitDy=0;entryX=0.017;entryY=0.588;entryDx=0;entryDy=0;entryPerimeter=0;" edge="1" parent="1" source="tVFLnHzWBaxxeH9vSnJw-2" target="tVFLnHzWBaxxeH9vSnJw-3">
          <mxGeometry width="50" height="50" relative="1" as="geometry">
            <mxPoint x="660" y="420" as="sourcePoint" />
            <mxPoint x="780" y="500" as="targetPoint" />
            <Array as="points">
              <mxPoint x="400" y="350" />
            </Array>
          </mxGeometry>
        </mxCell>
        <mxCell id="tVFLnHzWBaxxeH9vSnJw-5" value="&lt;div&gt;&lt;font style=&quot;font-size: 18px&quot;&gt;t.yield()&lt;/font&gt;&lt;/div&gt;&lt;div&gt;&lt;font size=&quot;3&quot;&gt;或&lt;/font&gt;&lt;/div&gt;&lt;div&gt;&lt;font size=&quot;3&quot;&gt;系统调度&lt;/font&gt;&lt;br&gt;&lt;/div&gt;" style="edgeLabel;html=1;align=center;verticalAlign=middle;resizable=0;points=[];labelBackgroundColor=none;" vertex="1" connectable="0" parent="tVFLnHzWBaxxeH9vSnJw-4">
          <mxGeometry x="-0.3729" y="21" relative="1" as="geometry">
            <mxPoint as="offset" />
          </mxGeometry>
        </mxCell>
        <mxCell id="tVFLnHzWBaxxeH9vSnJw-6" value="" style="curved=1;endArrow=classic;html=1;exitX=1;exitY=0.5;exitDx=0;exitDy=0;entryX=1.008;entryY=0.588;entryDx=0;entryDy=0;entryPerimeter=0;" edge="1" parent="1" source="tVFLnHzWBaxxeH9vSnJw-3" target="tVFLnHzWBaxxeH9vSnJw-2">
          <mxGeometry width="50" height="50" relative="1" as="geometry">
            <mxPoint x="540" y="270" as="sourcePoint" />
            <mxPoint x="542.04" y="417.03999999999996" as="targetPoint" />
            <Array as="points">
              <mxPoint x="800" y="330" />
            </Array>
          </mxGeometry>
        </mxCell>
        <mxCell id="tVFLnHzWBaxxeH9vSnJw-7" value="&lt;font size=&quot;3&quot;&gt;系统调度&lt;/font&gt;" style="edgeLabel;html=1;align=center;verticalAlign=middle;resizable=0;points=[];labelBackgroundColor=none;" vertex="1" connectable="0" parent="tVFLnHzWBaxxeH9vSnJw-6">
          <mxGeometry x="-0.3729" y="21" relative="1" as="geometry">
            <mxPoint as="offset" />
          </mxGeometry>
        </mxCell>
        <mxCell id="tVFLnHzWBaxxeH9vSnJw-8" value="&lt;font style=&quot;font-size: 18px&quot;&gt;t.start()&lt;/font&gt;" style="endArrow=classic;html=1;exitX=0.5;exitY=1;exitDx=0;exitDy=0;entryX=0.5;entryY=0;entryDx=0;entryDy=0;" edge="1" parent="1" source="tVFLnHzWBaxxeH9vSnJw-1" target="tVFLnHzWBaxxeH9vSnJw-2">
          <mxGeometry width="50" height="50" relative="1" as="geometry">
            <mxPoint x="660" y="420" as="sourcePoint" />
            <mxPoint x="710" y="370" as="targetPoint" />
          </mxGeometry>
        </mxCell>
        <mxCell id="tVFLnHzWBaxxeH9vSnJw-10" value="&lt;font style=&quot;font-size: 18px&quot;&gt;TIMED_WAITING&lt;/font&gt;" style="ellipse;whiteSpace=wrap;html=1;" vertex="1" parent="1">
          <mxGeometry x="900" y="180" width="170" height="60" as="geometry" />
        </mxCell>
        <mxCell id="tVFLnHzWBaxxeH9vSnJw-11" value="" style="curved=1;endArrow=classic;html=1;exitX=1;exitY=0;exitDx=0;exitDy=0;entryX=0.5;entryY=0;entryDx=0;entryDy=0;" edge="1" parent="1" source="tVFLnHzWBaxxeH9vSnJw-9" target="tVFLnHzWBaxxeH9vSnJw-10">
          <mxGeometry width="50" height="50" relative="1" as="geometry">
            <mxPoint x="660" y="410" as="sourcePoint" />
            <mxPoint x="660.96" y="277.03999999999996" as="targetPoint" />
            <Array as="points">
              <mxPoint x="860" y="90" />
            </Array>
          </mxGeometry>
        </mxCell>
        <mxCell id="tVFLnHzWBaxxeH9vSnJw-12" value="&lt;font size=&quot;3&quot;&gt;系统调度&lt;/font&gt;" style="edgeLabel;html=1;align=center;verticalAlign=middle;resizable=0;points=[];" vertex="1" connectable="0" parent="tVFLnHzWBaxxeH9vSnJw-11">
          <mxGeometry x="-0.3729" y="21" relative="1" as="geometry">
            <mxPoint as="offset" />
          </mxGeometry>
        </mxCell>
        <mxCell id="tVFLnHzWBaxxeH9vSnJw-13" value="" style="curved=1;endArrow=classic;html=1;exitX=0.5;exitY=1;exitDx=0;exitDy=0;entryX=1;entryY=0.5;entryDx=0;entryDy=0;" edge="1" parent="1" source="tVFLnHzWBaxxeH9vSnJw-10" target="tVFLnHzWBaxxeH9vSnJw-9">
          <mxGeometry width="50" height="50" relative="1" as="geometry">
            <mxPoint x="770" y="190" as="sourcePoint" />
            <mxPoint x="970" y="190" as="targetPoint" />
            <Array as="points">
              <mxPoint x="900" y="320" />
            </Array>
          </mxGeometry>
        </mxCell>
        <mxCell id="tVFLnHzWBaxxeH9vSnJw-14" value="&lt;div&gt;&lt;font style=&quot;font-size: 18px&quot;&gt;Object.notify()&lt;/font&gt;&lt;/div&gt;&lt;div&gt;&lt;font style=&quot;font-size: 18px&quot;&gt;Object.notifyAll()&lt;/font&gt;&lt;/div&gt;&lt;div&gt;&lt;font style=&quot;font-size: 18px&quot;&gt;LockSupport.unpark(Thread)&lt;br&gt;&lt;/font&gt;&lt;/div&gt;" style="edgeLabel;html=1;align=center;verticalAlign=middle;resizable=0;points=[];labelBackgroundColor=none;" vertex="1" connectable="0" parent="tVFLnHzWBaxxeH9vSnJw-13">
          <mxGeometry x="-0.3729" y="21" relative="1" as="geometry">
            <mxPoint as="offset" />
          </mxGeometry>
        </mxCell>
        <mxCell id="tVFLnHzWBaxxeH9vSnJw-15" value="&lt;font style=&quot;font-size: 18px&quot;&gt;BLOCKED&lt;/font&gt;" style="ellipse;whiteSpace=wrap;html=1;" vertex="1" parent="1">
          <mxGeometry x="900" y="400" width="170" height="60" as="geometry" />
        </mxCell>
      </root>
    </mxGraphModel>
  </diagram>
</mxfile>
